<svg fill="none" height="112" viewBox="0 0 112 112" width="112" xmlns="http://www.w3.org/2000/svg" xmlns:xlink="http://www.w3.org/1999/xlink"><clipPath id="a"><path d="m0 0h112v112h-112z"/></clipPath><g clip-path="url(#a)"><path d="m20.7857 108.627c7.2333 3.373 16.5603 3.373 35.2143 3.373s27.981 0 35.2143-3.373c7.6707-3.577 13.8357-9.742 17.4127-17.4127 3.373-7.2333 3.373-16.5603 3.373-35.2143s0-27.981-3.373-35.2143c-3.577-7.6707-9.742-13.83587-17.4127-17.41278-7.2333-3.37292-16.5603-3.37292-35.2143-3.37292s-27.981 0-35.2143 3.37292c-7.6707 3.57691-13.83587 9.74208-17.41278 17.41278-3.37292 7.2333-3.37292 16.5603-3.37292 35.2143s0 27.981 3.37292 35.2143c3.57691 7.6707 9.74208 13.8357 17.41278 17.4127z" fill="#0c0c0d"/><path d="m50.08 81.152c-3.2 0-6.08-.576-8.64-1.728s-4.576-2.752-6.048-4.8c-1.472-2.112-2.208-4.544-2.208-7.296 0-4.352 1.28-7.712 3.84-10.08 2.624-2.432 6.72-4.192 12.288-5.28l17.088-3.456c0-4.352-.992-7.584-2.976-9.696-1.92-2.112-4.704-3.168-8.352-3.168-3.52 0-6.272.8-8.256 2.4-1.984 1.536-3.36 3.776-4.128 6.72l-8.544-.672c.96-4.8 3.232-8.672 6.816-11.616 3.648-3.008 8.352-4.512 14.112-4.512 6.144 0 10.912 1.856 14.304 5.568 3.392 3.648 5.088 8.704 5.088 15.168v21.12c0 1.152.256 1.952.768 2.4s1.28.672 2.304.672h3.264v7.104c-.384.064-.992.096-1.824.096-.832.064-1.632.096-2.4.096-2.176 0-4.032-.352-5.568-1.056-1.472-.704-2.592-1.824-3.36-3.36-.768-1.6-1.184-3.648-1.248-6.144h1.536c-.448 2.176-1.536 4.16-3.264 5.952-1.664 1.728-3.776 3.104-6.336 4.128-2.56.96-5.312 1.44-8.256 1.44zm.768-7.104c3.456 0 6.336-.576 8.64-1.728 2.304-1.216 4.032-2.88 5.184-4.992 1.152-2.176 1.728-4.672 1.728-7.488v-4.416l-15.552 3.072c-3.456.64-5.856 1.632-7.2 2.976-1.344 1.28-2.016 2.976-2.016 5.088 0 2.368.8 4.224 2.4 5.568 1.664 1.28 3.936 1.92 6.816 1.92z" fill="#fff"/></g></svg>